# xmcd CD database file
#
# Track frame offsets:
#	150
#	13369
#	37729
#	61315
#	74444
#	89803
#	108567
#	144969
#
# Disc length: 2136 seconds
#
# Revision: 0
# Processed by: cddbd v1.5.1PL0 Copyright (c) Steve Scherf et al.
# Submitted via: CDex 1.51
#
DISCID=6f085608
DTITLE=trademark - trademark
DYEAR=2004
DGENRE=Rock
TTITLE0=金色の風
TTITLE1=夕暮れの海
TTITLE2=月の光を待って
TTITLE3=breath
TTITLE4=星の鳥
TTITLE5=光線
TTITLE6=青空
TTITLE7=鼓動
EXTD=YEAR: 2004
EXTT0=
EXTT1=
EXTT2=
EXTT3=
EXTT4=
EXTT5=
EXTT6=
EXTT7=
PLAYORDER=
